<svg xmlns="http://www.w3.org/2000/svg" width="131" height="56" viewBox="0 0 131 56">
  <metadata><?xpacket begin="﻿" id="W5M0MpCehiHzreSzNTczkc9d"?>
<x:xmpmeta xmlns:x="adobe:ns:meta/" x:xmptk="Adobe XMP Core 5.6-c138 79.159824, 2016/09/14-01:09:01        ">
   <rdf:RDF xmlns:rdf="http://www.w3.org/1999/02/22-rdf-syntax-ns#">
      <rdf:Description rdf:about=""/>
   </rdf:RDF>
</x:xmpmeta>
                                                                                                    
                                                                                                    
                                                                                                    
                                                                                                    
                                                                                                    
                                                                                                    
                                                                                                    
                                                                                                    
                                                                                                    
                                                                                                    
                                                                                                    
                                                                                                    
                                                                                                    
                                                                                                    
                                                                                                    
                                                                                                    
                                                                                                    
                                                                                                    
                                                                                                    
                                                                                                    
                           
<?xpacket end="w"?></metadata>
<defs>
    <style>
      .cls-1 {
        fill: #fff;
        fill-rule: evenodd;
      }
    </style>
  </defs>
  <path class="cls-1" d="M721.029,1403a11,11,0,1,1,11.343-10.99A11.183,11.183,0,0,1,721.029,1403Zm0-19.3a8.314,8.314,0,1,0,8.576,8.31A8.457,8.457,0,0,0,721.029,1383.7Zm17.707,10.72a1.363,1.363,0,0,1-1.384-1.34,16.332,16.332,0,0,0-32.647,0,1.384,1.384,0,0,1-2.767,0c0-10.2,8.564-18.5,19.091-18.5s19.09,8.3,19.09,18.5A1.363,1.363,0,0,1,738.736,1394.42ZM645.774,1403a11,11,0,1,1,11.344-10.99A11.183,11.183,0,0,1,645.774,1403Zm0-19.3a8.314,8.314,0,1,0,8.577,8.31A8.458,8.458,0,0,0,645.774,1383.7Zm17.707,10.72a1.362,1.362,0,0,1-1.383-1.34,16.332,16.332,0,0,0-32.647,0,1.384,1.384,0,0,1-2.767,0c0-10.2,8.564-18.5,19.09-18.5s19.091,8.3,19.091,18.5A1.363,1.363,0,0,1,663.481,1394.42Zm-35.414,0h-6.64a1.341,1.341,0,1,1,0-2.68h6.64A1.341,1.341,0,1,1,628.067,1394.42Zm-6.641-25.73a1.371,1.371,0,0,1-1.378-1.24,1.356,1.356,0,0,1,1.273-1.44l28.774-2.15a1.379,1.379,0,0,1,1.485,1.24,1.356,1.356,0,0,1-1.273,1.44l-28.774,2.14C621.5,1368.68,621.462,1368.69,621.426,1368.69Zm0,25.73a1.379,1.379,0,0,1-1.332-.98c-4.693-16.46-.117-26.25.08-26.66a1.4,1.4,0,0,1,1.835-.65,1.327,1.327,0,0,1,.673,1.78c-0.043.09-4.321,9.38,0.079,24.81a1.332,1.332,0,0,1-.965,1.65A1.183,1.183,0,0,1,621.426,1394.42Zm28.776-27.88a1.376,1.376,0,0,1-1.108-.54,1.305,1.305,0,0,1,.277-1.87l17.707-12.87a1.41,1.41,0,0,1,1.937.27,1.318,1.318,0,0,1-.277,1.88l-17.707,12.86A1.415,1.415,0,0,1,650.2,1366.54Zm86.322-12.87a0.915,0.915,0,0,1-.231-0.02c-53.575-8.71-67.475-.29-67.61-0.21a1.411,1.411,0,0,1-1.915-.36,1.308,1.308,0,0,1,.354-1.85c0.565-.38,14.511-9.18,69.629-0.22a1.338,1.338,0,0,1,1.135,1.54A1.366,1.366,0,0,1,736.524,1353.67Zm8.852,23.59a1.363,1.363,0,0,1-1.384-1.34V1365.2a1.384,1.384,0,0,1,2.767,0v10.72A1.363,1.363,0,0,1,745.376,1377.26Zm0,17.16h-6.64a1.341,1.341,0,1,1,0-2.68h6.64A1.341,1.341,0,1,1,745.376,1394.42Zm0-27.88a1.4,1.4,0,0,1-1.154-.6l-8.854-12.86a1.316,1.316,0,0,1,.385-1.86,1.408,1.408,0,0,1,1.919.37l8.854,12.87a1.319,1.319,0,0,1-.385,1.86A1.421,1.421,0,0,1,745.378,1366.54Zm0,27.88a1.371,1.371,0,0,1-.676-0.17,1.322,1.322,0,0,1-.527-1.83c4.523-7.79.045-15.76,0-15.84a1.327,1.327,0,0,1,.531-1.83,1.405,1.405,0,0,1,1.881.52c0.218,0.37,5.3,9.34,0,18.47A1.385,1.385,0,0,1,745.373,1394.42Zm-42.051,0H663.481a1.341,1.341,0,1,1,0-2.68h39.841A1.341,1.341,0,1,1,703.322,1394.42Zm42.054-27.88H650.2a1.341,1.341,0,1,1,0-2.68h95.175A1.341,1.341,0,1,1,745.376,1366.54Zm-55.334,0a1.363,1.363,0,0,1-1.384-1.34v-15.01a1.384,1.384,0,0,1,2.767,0v15.01A1.363,1.363,0,0,1,690.042,1366.54Zm26.562,0a1.393,1.393,0,0,1-1.2-.67l-8.853-15.02a1.322,1.322,0,0,1,.514-1.83,1.407,1.407,0,0,1,1.889.5l8.854,15.02a1.309,1.309,0,0,1-.515,1.82A1.423,1.423,0,0,1,716.6,1366.54Zm-90.75,8.58h-4.427a1.341,1.341,0,1,1,0-2.68h4.427A1.341,1.341,0,1,1,625.854,1375.12Zm119.522-2.15h-6.64a1.341,1.341,0,1,1,0-2.68h6.64A1.341,1.341,0,1,1,745.376,1372.97Z" transform="translate(-617.969 -1347)"/>
</svg>
