<svg xmlns="http://www.w3.org/2000/svg" width="93" height="83" viewBox="0 0 93 83">
  <metadata><?xpacket begin="﻿" id="W5M0MpCehiHzreSzNTczkc9d"?>
<x:xmpmeta xmlns:x="adobe:ns:meta/" x:xmptk="Adobe XMP Core 5.6-c138 79.159824, 2016/09/14-01:09:01        ">
   <rdf:RDF xmlns:rdf="http://www.w3.org/1999/02/22-rdf-syntax-ns#">
      <rdf:Description rdf:about=""/>
   </rdf:RDF>
</x:xmpmeta>
                                                                                                    
                                                                                                    
                                                                                                    
                                                                                                    
                                                                                                    
                                                                                                    
                                                                                                    
                                                                                                    
                                                                                                    
                                                                                                    
                                                                                                    
                                                                                                    
                                                                                                    
                                                                                                    
                                                                                                    
                                                                                                    
                                                                                                    
                                                                                                    
                                                                                                    
                                                                                                    
                           
<?xpacket end="w"?></metadata>
<defs>
    <style>
      .cls-1 {
        fill: #fff;
        fill-rule: evenodd;
      }
    </style>
  </defs>
  <path id="Shape_502_copy" data-name="Shape 502 copy" class="cls-1" d="M1137.5,657.5a17.243,17.243,0,1,0-17.12-17.243h0A17.185,17.185,0,0,0,1137.5,657.5Zm0-32.331a15.088,15.088,0,1,1-14.98,15.088h0A15.086,15.086,0,0,1,1137.5,625.167Zm41.84,46.575h-6.04v-0.656a4.667,4.667,0,0,0-4.65-4.686h-10.42a10.339,10.339,0,0,0-9.3-5.528h-23.24a10.471,10.471,0,0,0-10,7.59l-8.37,29.988h-9.91a6.438,6.438,0,0,0-6.41,6.466h0v1.078h88.34a4.667,4.667,0,0,0,4.65-4.686V676.521a4.657,4.657,0,0,0-4.55-4.778h-0.1Zm-8.04-.656v0.656h-5.9a4.667,4.667,0,0,0-4.65,4.686V676.8h-9.91v2.109h9.63V685h-9.63v2.109h9.63v5.81h-9.63v2.108h9.63v6.091a4.681,4.681,0,0,0,.93,2.671h-12.79a2.614,2.614,0,0,1-1.81-2.483V671.086a2.657,2.657,0,0,1,2.65-2.671h19.29a2.671,2.671,0,0,1,2.47,2.671h0.09Zm-33.8.7,3.53,5.06a1.406,1.406,0,0,1,0,1.828l-3.12,2.952a0.37,0.37,0,0,1-.51,0l-3.16-3a1.406,1.406,0,0,1,0-1.828Zm0-3.749h0l-2.14-2.155,2.14-2.108,2.27,2.295-2.27,2.156V668.04Zm-19.63.938a8.35,8.35,0,0,1,7.96-6.092h9.57l-1.67,1.687a2.124,2.124,0,0,0-.02,2.982c0.01,0.006.01,0.011,0.02,0.017l2.42,2.436-3.82,5.623a3.539,3.539,0,0,0,.47,4.686l2.98,3a2.449,2.449,0,0,0,3.44,0l2.93-3.092a3.538,3.538,0,0,0,.46-4.686l-3.9-5.622,2.41-2.437a2.124,2.124,0,0,0,.02-2.982c-0.01,0-.01-0.011-0.02-0.017l-1.67-1.686h9.58a8.254,8.254,0,0,1,6.6,3.373h-6.51a4.667,4.667,0,0,0-4.65,4.686v27.41h-19.3V684.206a1.854,1.854,0,0,0-3.62-.469l-3.58,14.713h-8.37Zm5.21,29.519h-2.93l2.93-11.855V698.5Zm-25.67,2.108h47.06v0.7a4.684,4.684,0,0,0,.84,2.53h-52.08A4.282,4.282,0,0,1,1097.41,700.605Zm84.49,0.7a2.657,2.657,0,0,1-2.65,2.671H1165.4a2.665,2.665,0,0,1-2.66-2.671V676.521a2.667,2.667,0,0,1,2.66-2.577h13.94a2.665,2.665,0,0,1,2.66,2.671V701.4Zm-15.02-19.023h10.7v2.108h-10.7v-2.108Zm0,5.575h10.7v2.109h-10.7V687.86Zm0,5.2h10.7v2.109h-10.7v-2.109Z" transform="translate(-1091 -623)"/>
</svg>
