<svg xmlns="http://www.w3.org/2000/svg" width="21" height="21" viewBox="0 0 21 21">
  <defs>
    <style>
      .cls-1 {
        fill: #a5a5a5;
        fill-rule: evenodd;
      }
    </style>
  </defs>
  <path id="gate.svg" class="cls-1" d="M1267.49,120a2.767,2.767,0,0,0-1.47.561s-0.01.006-.01,0.008l-7.53,4.368a0.061,0.061,0,0,0-.01.007,3.014,3.014,0,0,0-1.21,1.079,3.139,3.139,0,0,0-.26,1.56V140.3a0.725,0.725,0,0,0,.7.7h6.53a0.725,0.725,0,0,0,.7-0.7v-6.964a0.737,0.737,0,0,1,.76-0.736h3.62a0.737,0.737,0,0,1,.76.736V140.3a0.725,0.725,0,0,0,.7.7h6.53a0.725,0.725,0,0,0,.7-0.7V127.583a3.139,3.139,0,0,0-.26-1.56,3.014,3.014,0,0,0-1.21-1.079,0.061,0.061,0,0,0-.01-0.007l-7.53-4.368s-0.01-.006-0.01-0.008a2.767,2.767,0,0,0-1.47-.561h-0.02Zm0.01,1.407a3.344,3.344,0,0,1,.77.358c0.01,0,.01,0,0.01.007l7.53,4.368s0,0,.01.007a2.084,2.084,0,0,1,.69.54,2.4,2.4,0,0,1,.09.9V139.6h-5.13v-6.264a2.163,2.163,0,0,0-2.16-2.136h-3.62a2.163,2.163,0,0,0-2.16,2.136V139.6h-5.13V127.583a2.4,2.4,0,0,1,.09-0.9,2.1,2.1,0,0,1,.69-0.54l0.01-.007,7.53-4.368s0-.005.01-0.007a3.344,3.344,0,0,1,.77-0.358h0Z" transform="translate(-1257 -120)"/>
</svg>
