<svg xmlns="http://www.w3.org/2000/svg" width="76" height="79.47" viewBox="0 0 76 79.47">
  <metadata><?xpacket begin="﻿" id="W5M0MpCehiHzreSzNTczkc9d"?>
<x:xmpmeta xmlns:x="adobe:ns:meta/" x:xmptk="Adobe XMP Core 5.6-c138 79.159824, 2016/09/14-01:09:01        ">
   <rdf:RDF xmlns:rdf="http://www.w3.org/1999/02/22-rdf-syntax-ns#">
      <rdf:Description rdf:about=""/>
   </rdf:RDF>
</x:xmpmeta>
                                                                                                    
                                                                                                    
                                                                                                    
                                                                                                    
                                                                                                    
                                                                                                    
                                                                                                    
                                                                                                    
                                                                                                    
                                                                                                    
                                                                                                    
                                                                                                    
                                                                                                    
                                                                                                    
                                                                                                    
                                                                                                    
                                                                                                    
                                                                                                    
                                                                                                    
                                                                                                    
                           
<?xpacket end="w"?></metadata>
<defs>
    <style>
      .cls-1 {
        fill: #fff;
        fill-rule: evenodd;
      }
    </style>
  </defs>
  <path class="cls-1" d="M289.329,1337.65H274.165l-6.736-5.54a7.036,7.036,0,0,0-8.928,0l-6.736,5.54H236.6a1,1,0,0,0-1,1v12.31l-10.31,8.48h0a1.049,1.049,0,0,0-.2.26v0.07a0.976,0.976,0,0,0-.09.4v40.85a8.992,8.992,0,0,0,9.008,8.97h57.982a8.992,8.992,0,0,0,9.008-8.97v-40.85a0.96,0.96,0,0,0-.09-0.4v-0.07a1.026,1.026,0,0,0-.2-0.26h0l-10.309-8.48v-12.31a1,1,0,0,0-1-1h-0.072Zm-29.557-3.99a5.028,5.028,0,0,1,6.376,0l4.864,3.99H254.958Zm28.556,5.98v27.99l-21.179,15.71a7.017,7.017,0,0,1-8.378,0L237.6,1367.63v-27.99h50.726Zm-52.727,13.9v12.61l-8.008-5.98Zm56.39,54.49H233.939a6.988,6.988,0,0,1-7.006-6.97V1362.2l8.848,6.57a1.02,1.02,0,0,0,.54.4l21.259,15.78a9.108,9.108,0,0,0,10.77,0l21.259-15.78a1.026,1.026,0,0,0,.541-0.4L299,1362.2v38.86A6.987,6.987,0,0,1,291.991,1408.03Zm6.386-47.82-8.007,5.98v-12.65Zm-46.642,5.31,11.23-11.19,11.23,11.19a1,1,0,0,0,1.412-1.41l-11.931-11.88a1,1,0,0,0-1.411,0l-11.951,11.88a1,1,0,0,0,1.411,1.41h0.01Z" transform="translate(-225 -1330.53)"/>
</svg>
