<svg xmlns="http://www.w3.org/2000/svg" width="26.281" height="30.938" viewBox="0 0 26.281 30.938">
  <defs>
    <style>
      .cls-1 {
        fill: #fff;
        fill-rule: evenodd;
      }
    </style>
  </defs>
  <path id="pray-fixed.svg" class="cls-1" d="M24.481,235.012a0.637,0.637,0,0,0-.389.133,3.778,3.778,0,0,0,1.014,6.567l0.02,1.7c-2.845,1.432-9.143,6.224-9.291,10.8a8.25,8.25,0,0,0,1.5,4.954L33.663,259.2a7.4,7.4,0,0,0,1.375-4.98c-0.42-4.356-6.168-9.668-8.68-10.83v-1.441a3.746,3.746,0,0,0,3-1.511,0.628,0.628,0,1,0-1-.756,2.51,2.51,0,1,1-3.511-3.528,0.631,0.631,0,0,0-.367-1.138h0ZM13.754,260.161a1.448,1.448,0,0,0,0,2.9H37.146a1.448,1.448,0,0,0,0-2.9H13.754Zm0.481,3.861a1.927,1.927,0,0,0-1.924,1.93H38.589a1.927,1.927,0,0,0-1.924-1.93H14.235Zm-0.329-25.094a0.482,0.482,0,0,1-.481.483h0a0.482,0.482,0,0,1-.481-0.483h0a0.482,0.482,0,0,1,.481-0.482h0a0.482,0.482,0,0,1,.481.482h0Zm7.215,1.931a0.482,0.482,0,0,1-.481.482h0a0.482,0.482,0,0,1-.481-0.482h0a0.482,0.482,0,0,1,.481-0.483h0a0.482,0.482,0,0,1,.481.483h0Zm-6.253,6.756a0.482,0.482,0,0,1-.481.482h0a0.482,0.482,0,0,1-.481-0.482h0a0.482,0.482,0,0,1,.481-0.483h0a0.482,0.482,0,0,1,.481.483h0Zm17.8-3.861a0.482,0.482,0,0,1-.481.483h0a0.482,0.482,0,0,1-.481-0.483h0a0.482,0.482,0,0,1,.481-0.482h0a0.482,0.482,0,0,1,.481.482h0Zm4.329-3.378a0.482,0.482,0,0,1-.481.483h0a0.483,0.483,0,0,1-.481-0.483h0a0.483,0.483,0,0,1,.481-0.483h0a0.482,0.482,0,0,1,.481.483h0Zm-3.367-2.9a0.482,0.482,0,0,1-.481.482h0a0.482,0.482,0,0,1-.481-0.482h0A0.482,0.482,0,0,1,33.147,237h0a0.482,0.482,0,0,1,.481.483h0Zm2.879,7.23a0.483,0.483,0,0,0-.474.491h0v1.917a0.481,0.481,0,1,0,.962.013s0-.009,0-0.013V245.2a0.483,0.483,0,0,0-.473-0.491H36.507Zm-0.949.966a0.483,0.483,0,0,0-.013.965h1.923a0.483,0.483,0,0,0,.013-0.965H35.558Zm-18.772-3.861a0.482,0.482,0,0,0-.474.49h0v1.917a0.481,0.481,0,1,0,.962.014v-1.931a0.482,0.482,0,0,0-.473-0.49H16.785Zm-0.949.965a0.483,0.483,0,0,0-.012.965h1.923a0.483,0.483,0,0,0,.012-0.965H15.836Z" transform="translate(-12.313 -235)"/>
</svg>
