<svg xmlns="http://www.w3.org/2000/svg" xmlns:xlink="http://www.w3.org/1999/xlink" preserveAspectRatio="xMidYMid" width="30" height="27" viewBox="0 0 30 27">
  <defs>
    <style>
      .cls-1 {
        fill: #fff;
        fill-rule: evenodd;
      }
    </style>
  </defs>
  <path d="M2.313,-0.000 C1.045,-0.000 -0.000,1.038 -0.000,2.297 L-0.000,24.706 C-0.000,25.965 1.045,27.000 2.313,27.000 L27.687,27.000 C28.955,27.000 30.000,25.965 30.000,24.706 L30.000,2.297 C30.000,1.038 28.955,-0.000 27.687,-0.000 L2.313,-0.000 ZM2.313,1.503 L27.687,1.503 C28.144,1.503 28.490,1.843 28.490,2.297 L28.490,24.706 C28.490,25.160 28.144,25.500 27.687,25.500 L2.313,25.500 C1.856,25.500 1.510,25.160 1.510,24.706 L1.510,2.297 C1.510,1.843 1.856,1.503 2.313,1.503 ZM15.651,4.500 C15.234,4.500 14.896,4.836 14.896,5.250 L14.896,9.750 C14.896,10.164 15.234,10.500 15.651,10.500 L24.713,10.500 C25.130,10.500 25.469,10.164 25.469,9.750 L25.469,5.250 C25.469,4.836 25.130,4.500 24.713,4.500 L15.651,4.500 ZM4.531,6.000 L4.531,7.500 L11.875,7.500 L11.875,6.000 L4.531,6.000 ZM16.406,6.000 L23.958,6.000 L23.958,9.000 L16.406,9.000 L16.406,6.000 ZM15.651,12.000 C15.234,12.000 14.896,12.336 14.896,12.750 L14.896,17.250 C14.896,17.664 15.234,18.000 15.651,18.000 L24.713,18.000 C25.130,18.000 25.469,17.664 25.469,17.250 L25.469,12.750 C25.469,12.336 25.130,12.000 24.713,12.000 L15.651,12.000 ZM4.531,13.500 L4.531,15.000 L11.875,15.000 L11.875,13.500 L4.531,13.500 ZM16.406,13.500 L23.958,13.500 L23.958,16.500 L16.406,16.500 L16.406,13.500 ZM4.531,21.000 L4.531,22.500 L25.315,22.500 L25.315,21.000 L4.531,21.000 Z" class="cls-1"/>
</svg>
