<svg xmlns="http://www.w3.org/2000/svg" width="35" height="26" viewBox="0 0 35 26">
  <defs>
    <style>
      .cls-1 {
        fill: #fff;
        fill-rule: evenodd;
      }
    </style>
  </defs>
  <path id="weather-fixed.svg" class="cls-1" d="M38.609,198.688a3.455,3.455,0,0,0,.122-0.912,3.533,3.533,0,0,0-5.522-2.873,7.489,7.489,0,0,0-10.056-3.189,5.447,5.447,0,1,0-5.442,7.818,4.85,4.85,0,0,0-.51,6.529v0.218H17.38A5,5,0,0,0,21.166,208c0.1,0,.19-0.01.263-0.013H35.875a0.057,0.057,0,0,1,.02,0,0.059,0.059,0,0,1,.02,0h0.228v-0.008A5.018,5.018,0,0,0,38.609,198.688Zm-2.661,7.617v0H21.384l-0.036,0-0.107.006a0.652,0.652,0,0,1-.075.006,3.281,3.281,0,0,1-3.292-3.25,3.238,3.238,0,0,1,2.029-3l1-.413-0.065-1.071-0.008-.126c-0.005-.077-0.012-0.15-0.012-0.217a5.763,5.763,0,0,1,10.944-2.439l0.819,1.691,1.5-1.148a1.832,1.832,0,0,1,2.947,1.427,1.765,1.765,0,0,1-.083.538l-0.36,1.138,1.039,0.61A3.323,3.323,0,0,1,39.3,202.95,3.4,3.4,0,0,1,35.948,206.305ZM17.2,182h2.137v3.7H17.2V182ZM6,193.053h3.75v2.11H6v-2.11Zm6.99-5.608-1.51,1.492-2.653-2.618,1.51-1.491Zm-2.655,16-1.51-1.492,2.654-2.619,1.511,1.492Zm17.4-17.171L25.079,188.9,23.568,187.4l2.653-2.618Z" transform="translate(-6 -182)"/>
</svg>
