<svg xmlns="http://www.w3.org/2000/svg" width="79" height="79" viewBox="0 0 79 79">
  <metadata><?xpacket begin="﻿" id="W5M0MpCehiHzreSzNTczkc9d"?>
<x:xmpmeta xmlns:x="adobe:ns:meta/" x:xmptk="Adobe XMP Core 5.6-c138 79.159824, 2016/09/14-01:09:01        ">
   <rdf:RDF xmlns:rdf="http://www.w3.org/1999/02/22-rdf-syntax-ns#">
      <rdf:Description rdf:about=""/>
   </rdf:RDF>
</x:xmpmeta>
                                                                                                    
                                                                                                    
                                                                                                    
                                                                                                    
                                                                                                    
                                                                                                    
                                                                                                    
                                                                                                    
                                                                                                    
                                                                                                    
                                                                                                    
                                                                                                    
                                                                                                    
                                                                                                    
                                                                                                    
                                                                                                    
                                                                                                    
                                                                                                    
                                                                                                    
                                                                                                    
                           
<?xpacket end="w"?></metadata>
<defs>
    <style>
      .cls-1 {
        fill: #fff;
        fill-rule: evenodd;
      }
    </style>
  </defs>
  <path class="cls-1" d="M1103.5,1332a39.5,39.5,0,1,0,39.5,39.5A39.526,39.526,0,0,0,1103.5,1332Zm0,3.43a35.99,35.99,0,0,1,30.05,16.13,14.831,14.831,0,0,0-4.29-.67,18.511,18.511,0,0,0-11.4,4.35c-3.3,2.71-5.77,6.61-5.77,11.11a14.358,14.358,0,0,0,3.06,8.88,9.48,9.48,0,0,0,7.24,4,5.631,5.631,0,0,0,3.6-1.64c1.28-1.09,2.08-.96,3.14.05,1.28,1.32.86,2.02,0.05,3.12a5.739,5.739,0,0,0-1.64,3.62,3.813,3.813,0,0,0,.86,2.28c0.61,0.8,1.21,1.44,1.8,2.23a20.131,20.131,0,0,0-4.32,10.89,36.068,36.068,0,0,1-35.05,5.48,22.992,22.992,0,0,0,3.98-8.32,48.384,48.384,0,0,0,1.39-5.69h3.87a1.773,1.773,0,0,0,1.5-.91c1.88-4,6.14-7.87,6.22-11.97-0.21-2.22-1.76-3.52-3.49-4.43-1.54-.81-3.16-1.46-3.99-2.06-5.32-6.95-12.86-12-16.21-14.5a5.318,5.318,0,0,1-1.56-4.64,10.746,10.746,0,0,1,3.22-5.71c2.03-1.66,4.51-1.71,7.46-1.02,2.98,0.69,6.15,2.14,8.88,3.06a3.873,3.873,0,0,0,3.65-.89,13.259,13.259,0,0,0,3.63-5.96c0.64-2.48-.13-4.5-2.77-5.01-3.04-.48-6.3.11-9.12-0.06-0.74-.09-0.61-0.42-0.75-1.07a47.033,47.033,0,0,1,6.76-.65h0Zm-10.14,1.45a5.321,5.321,0,0,0,.77,2.07,4.027,4.027,0,0,0,3.22,1.61c3.06,0.37,6.03-.49,8.83.08a10.1,10.1,0,0,1-3.03,5.15,91.125,91.125,0,0,0-9.12-3.14c-3.47-.81-7.4-0.85-10.52,1.75a15.816,15.816,0,0,0-4.35,7.86,8.83,8.83,0,0,0,2.52,7.57c4.55,2.87,11.75,8.03,16.16,14.41a1.659,1.659,0,0,0,.35.35,29.623,29.623,0,0,0,4.5,2.38,3.647,3.647,0,0,1,1.67,1.4c-1.14,3.53-3.43,6.37-5.23,9.44h-4.22a1.784,1.784,0,0,0-1.53.94c-1.16,2.34-1.07,4.84-1.82,7.09a25.953,25.953,0,0,1-4.08,7.97,37.425,37.425,0,0,1-5.1-3.06c1.3-4.57,3.14-9.07,3.09-13.79a7.715,7.715,0,0,0-.57-2.07c-2.2-4.07-5.52-8.01-7.64-11.51a11.856,11.856,0,0,1-1.24-2.74c0.55-2.1,1.73-3.59,2.69-5.37a4.387,4.387,0,0,0-.33-5.15,22.857,22.857,0,0,0-3.19-2.55c0.21-1.08.62-2.21,0.83-3.24a5.522,5.522,0,0,0-1.96-3.71,37.192,37.192,0,0,1,19.3-13.74h0Zm-21.15,16.69a0.954,0.954,0,0,1,.32.68,17.255,17.255,0,0,0-.8,3.51,3.265,3.265,0,0,0,1.23,2.44c0.97,0.77,1.89,1.36,2.79,2.18a1,1,0,0,1-.05,1.28c-0.27.51-.71,1.17-1.15,1.88a9.716,9.716,0,0,0-1.96,5.1c0,1.65.78,2.93,1.71,4.51,2.53,4.29,5.34,7.32,7.49,11.24a5.7,5.7,0,0,1,.24.62,51.825,51.825,0,0,1-2.44,11.49,36.041,36.041,0,0,1-7.38-44.93h0Zm57.05,0.76c2.1,0,5.76.56,7.27,2.63a36.14,36.14,0,0,1-6.36,38.82,30.4,30.4,0,0,1,3.2-5.5,3.338,3.338,0,0,0-.03-2.79,26.643,26.643,0,0,0-2.33-3.14,7.846,7.846,0,0,1,.91-1.53c2.08-2.64,1.94-5.27-.38-7.62-2.59-2.34-4.88-2.42-7.59-.37a9.615,9.615,0,0,1-1.56.96,6.284,6.284,0,0,1-4.56-2.68,11.084,11.084,0,0,1-2.31-6.76c0-3.23,1.83-6.23,4.54-8.46A16.73,16.73,0,0,1,1129.26,1354.33Z" transform="translate(-1064 -1332)"/>
</svg>
