<svg xmlns="http://www.w3.org/2000/svg" width="56" height="57" viewBox="0 0 56 57">
  <defs>
    <style>
      .cls-1 {
        fill: #a5a5a5;
        fill-rule: evenodd;
      }
    </style>
  </defs>
  <path id="_3ahd.svg" data-name="3ahd.svg" class="cls-1" d="M1247.72,975.177a2.524,2.524,0,0,0-.75-1.713,2.621,2.621,0,0,0-1.9-.745,4.552,4.552,0,0,0-4.42,4.661l0.13,4.156-0.71,2.842a3.312,3.312,0,0,0-2.37.962l-4.68,4.625-1.62.277a5.248,5.248,0,0,0-2.79,1.424l-3.22,3.184a5.064,5.064,0,0,0-1.52,3.506l-0.12,5.274a3.77,3.77,0,0,0-2.61,3.53l-0.07,6.91a3.668,3.668,0,0,0,1.08,2.67,3.831,3.831,0,0,0,2.68,1.14l11.6,0.12h0.04a3.785,3.785,0,0,0,2.66-1.08,3.69,3.69,0,0,0,1.15-2.64l0.07-6.91a3.677,3.677,0,0,0-1.09-2.67,3.741,3.741,0,0,0-1.4-.9l0.02-.16a5.443,5.443,0,0,1,1.57-3.08l5.44-5.375a8.5,8.5,0,0,0,2.47-5.109l0.57-5.413a3.067,3.067,0,0,0,.07-0.612v-0.039c0-.036.01-0.07,0.01-0.106Zm-9.29,32.173-0.07,6.91a1.876,1.876,0,0,1-.57,1.31,1.97,1.97,0,0,1-1.34.53l-11.6-.12a1.914,1.914,0,0,1-1.32-.56,1.811,1.811,0,0,1-.54-1.33l0.07-6.9a1.88,1.88,0,0,1,1.89-1.85h0.02l11.6,0.12a1.881,1.881,0,0,1,1.32.57A1.812,1.812,0,0,1,1238.43,1007.35Zm5.1-13.509-5.44,5.377a7.353,7.353,0,0,0-2.11,4.142l-0.03.2-10.27-.11,0.12-5.051a3.221,3.221,0,0,1,.95-2.205l3.22-3.184a3.34,3.34,0,0,1,1.76-.895l1.92-.329a0.806,0.806,0,0,0,.19-0.055c0.01,0,.01,0,0.02-0.006a1.063,1.063,0,0,0,.3-0.2s0,0,.01,0l4.89-4.839a1.417,1.417,0,0,1,1.99,0,1.387,1.387,0,0,1,0,1.974l-5.62,5.555a0.951,0.951,0,0,0,0,1.343,0.977,0.977,0,0,0,.68.278,0.943,0.943,0,0,0,.68-0.278l5.62-5.555a3.285,3.285,0,0,0-.49-5.061l0.76-3.073a0.04,0.04,0,0,0,.01-0.031c0-.033.01-0.065,0.01-0.1a0.327,0.327,0,0,0,.01-0.1v-0.032l-0.14-4.286a2.644,2.644,0,0,1,2.55-2.7,0.655,0.655,0,0,1,.49.189,0.664,0.664,0,0,1,.19.433l0.28,8.66-0.06.609a0.163,0.163,0,0,0-.01.068l-0.57,5.3A6.512,6.512,0,0,1,1243.53,993.841Zm-7.4,12.749a1.625,1.625,0,1,1-1.64,1.63A1.632,1.632,0,0,1,1236.13,1006.59Zm-19.88-2.96-0.12-5.274a5.068,5.068,0,0,0-1.52-3.506l-3.22-3.183a5.219,5.219,0,0,0-2.78-1.424l-1.63-.278-4.67-4.625a3.364,3.364,0,0,0-2.38-.962l-0.71-2.842,0.14-4.158a4.562,4.562,0,0,0-4.43-4.66,2.622,2.622,0,0,0-1.89.745,2.538,2.538,0,0,0-.76,1.716l-0.28,8.736c0,0.037.01,0.073,0.01,0.11v0.016a3.207,3.207,0,0,0,.06.622l0.58,5.41a8.443,8.443,0,0,0,2.47,5.11l5.44,5.377a5.447,5.447,0,0,1,1.57,3.07l0.02,0.17a3.858,3.858,0,0,0-1.41.9,3.717,3.717,0,0,0-1.09,2.67l0.08,6.9a3.7,3.7,0,0,0,1.15,2.65,3.785,3.785,0,0,0,2.66,1.08h0.04l11.59-.12a3.8,3.8,0,0,0,2.68-1.14,3.693,3.693,0,0,0,1.09-2.67l-0.07-6.91A3.779,3.779,0,0,0,1216.25,1003.63Zm-14.33-4.412-5.44-5.377a6.58,6.58,0,0,1-1.92-3.965l-0.56-5.3c0-.023-0.01-0.045-0.01-0.068l-0.07-.609,0.28-8.658a0.625,0.625,0,0,1,.2-0.436,0.637,0.637,0,0,1,.47-0.19,2.648,2.648,0,0,1,2.57,2.7l-0.14,4.289a0.034,0.034,0,0,0,0,.031v0.1c0.01,0.032.01,0.065,0.02,0.1v0.032l0.77,3.073a3.324,3.324,0,0,0-.5.4,3.272,3.272,0,0,0,0,4.66l5.62,5.555a0.98,0.98,0,0,0,.68.277,0.959,0.959,0,0,0,.68-0.278,0.934,0.934,0,0,0,0-1.343l-5.62-5.555a1.387,1.387,0,0,1,0-1.974,1.431,1.431,0,0,1,2,0l4.89,4.839s0,0,.01,0a0.827,0.827,0,0,0,.3.2s0.01,0,.01.007a1.011,1.011,0,0,0,.2.055l1.92,0.329a3.266,3.266,0,0,1,1.75.894l3.22,3.184a3.19,3.19,0,0,1,.96,2.205l0.11,5.051-10.26.11-0.03-.2A7.353,7.353,0,0,0,1201.92,999.218Zm14.56,16.192a1.923,1.923,0,0,1-1.33.57l-11.59.12a1.952,1.952,0,0,1-1.34-.53,1.876,1.876,0,0,1-.57-1.31l-0.07-6.91a1.773,1.773,0,0,1,.54-1.32,1.881,1.881,0,0,1,1.32-.57l11.6-.12h0.02a1.87,1.87,0,0,1,1.88,1.84l0.08,6.91A1.852,1.852,0,0,1,1216.48,1015.41Zm-12.6-8.82a1.625,1.625,0,1,1-1.65,1.63A1.639,1.639,0,0,1,1203.88,1006.59Zm3.19-27.555h1.81a11.059,11.059,0,0,0,.93,2.219l-1.28,1.265a1.984,1.984,0,0,0,0,2.828l1.8,1.774a2.016,2.016,0,0,0,1.43.585,2.051,2.051,0,0,0,1.43-.585l1.28-1.264a11.4,11.4,0,0,0,2.24.918v1.786a2.018,2.018,0,0,0,2.03,2h2.53a2.009,2.009,0,0,0,2.02-2v-1.786a11.243,11.243,0,0,0,2.25-.918l1.28,1.264a2.04,2.04,0,0,0,2.86,0l1.79-1.774a1.984,1.984,0,0,0,0-2.828l-1.27-1.265a11.67,11.67,0,0,0,.93-2.219h1.8a2.018,2.018,0,0,0,2.03-2v-2.5a2.019,2.019,0,0,0-2.03-2h-1.8a11.652,11.652,0,0,0-.93-2.22l1.28-1.265a2,2,0,0,0,0-2.828l-1.8-1.774a2.089,2.089,0,0,0-2.86,0l-1.28,1.264a11.184,11.184,0,0,0-2.25-.918V963a2.01,2.01,0,0,0-2.02-2h-2.53a2.018,2.018,0,0,0-2.03,2v1.784a11.344,11.344,0,0,0-2.24.919l-1.28-1.265a2.089,2.089,0,0,0-2.86,0l-1.8,1.774a1.985,1.985,0,0,0,0,2.829l1.28,1.264a11.043,11.043,0,0,0-.93,2.22h-1.81a2.016,2.016,0,0,0-2.02,2v2.5A2.016,2.016,0,0,0,1207.07,979.035Zm-0.1-4.5a0.106,0.106,0,0,1,.11-0.1h2.54a0.99,0.99,0,0,0,.29-0.049c0.01,0,.03-0.008.04-0.014a1.07,1.07,0,0,0,.25-0.132l0.03-.032a0.763,0.763,0,0,0,.19-0.208c0.01-.008.01-0.018,0.02-0.027a0.876,0.876,0,0,0,.11-0.274s0.01-.006.01-0.009a9.105,9.105,0,0,1,1.26-3.019,0.822,0.822,0,0,0,.07-0.143,0.017,0.017,0,0,0,.01-0.018,0.8,0.8,0,0,0,.07-0.337v-0.021a0.954,0.954,0,0,0-.06-0.335,0.023,0.023,0,0,1-.01-0.022,0.99,0.99,0,0,0-.21-0.3v0l-0.01-.007v0l-1.79-1.769a0.1,0.1,0,0,1,0-.143l1.8-1.774a0.111,0.111,0,0,1,.14,0l1.8,1.78a0.07,0.07,0,0,0,.01.008,0.954,0.954,0,0,0,.28.183c0.02,0.01.05,0.018,0.07,0.026a0.983,0.983,0,0,0,.32.062h0a0.934,0.934,0,0,0,.32-0.062c0.03-.011.06-0.026,0.09-0.04s0.07-.027.11-0.048a9.446,9.446,0,0,1,3.05-1.25,0.461,0.461,0,0,0,.07-0.021c0.04-.011.07-0.021,0.11-0.036s0.05-.028.08-0.043,0.05-.029.08-0.047a0.326,0.326,0,0,0,.07-0.061,0.346,0.346,0,0,0,.07-0.057c0.02-.022.04-0.046,0.06-0.07s0.04-.047.06-0.073,0.03-.05.04-0.076a0.3,0.3,0,0,0,.04-0.085,0.336,0.336,0,0,0,.03-0.093c0.01-.028.02-0.054,0.03-0.083a0.519,0.519,0,0,0,.01-0.125c0-.019.01-0.037,0.01-0.057V963a0.092,0.092,0,0,1,.1-0.1h2.53a0.1,0.1,0,0,1,.1.1v2.513c0,0.02.01,0.038,0.01,0.058a0.524,0.524,0,0,0,.01.125,0.252,0.252,0,0,1,.02.082c0.01,0.031.02,0.063,0.03,0.093s0.03,0.057.05,0.085a0.27,0.27,0,0,0,.04.077c0.02,0.025.04,0.048,0.06,0.072s0.04,0.049.06,0.07,0.04,0.039.06,0.058,0.05,0.042.08,0.06a0.375,0.375,0,0,0,.08.047c0.03,0.015.05,0.031,0.08,0.043a0.94,0.94,0,0,0,.11.036,0.461,0.461,0,0,0,.07.021,9.468,9.468,0,0,1,3.05,1.25,0.56,0.56,0,0,0,.11.048c0.03,0.014.06,0.029,0.09,0.04a0.934,0.934,0,0,0,.32.062h0a0.957,0.957,0,0,0,.32-0.061,0.7,0.7,0,0,1,.07-0.027,1.1,1.1,0,0,0,.28-0.182s0,0,.01-0.009l1.8-1.78a0.111,0.111,0,0,1,.14,0l1.8,1.774a0.123,0.123,0,0,1,0,.142l-1.79,1.77c-0.01,0-.01,0-0.01,0v0.007c-0.01,0-.01,0-0.01.006a0.822,0.822,0,0,0-.2.3c0,0.007-.01.015-0.01,0.022a0.954,0.954,0,0,0-.06.335v0.02a0.983,0.983,0,0,0,.06.338,0.017,0.017,0,0,1,.01.018,0.88,0.88,0,0,0,.08.143,9.323,9.323,0,0,1,1.26,3.018v0.009a1.23,1.23,0,0,0,.12.274c0,0.009.01,0.019,0.01,0.028a0.983,0.983,0,0,0,.19.207c0.01,0.011.03,0.022,0.04,0.032a0.845,0.845,0,0,0,.24.132l0.05,0.014a0.924,0.924,0,0,0,.28.049h2.55a0.1,0.1,0,0,1,.1.1v2.5a0.1,0.1,0,0,1-.1.1h-2.54c-0.02,0-.04,0-0.06.006a0.962,0.962,0,0,0-.13.012,0.769,0.769,0,0,0-.09.027,0.4,0.4,0,0,0-.08.025c-0.04.015-.07,0.034-0.11,0.052a0.4,0.4,0,0,1-.06.032c-0.03.021-.06,0.046-0.09,0.071a0.25,0.25,0,0,1-.05.043,0.421,0.421,0,0,0-.07.085,0.249,0.249,0,0,0-.05.055c-0.02.032-.04,0.067-0.06,0.1s-0.02.039-.03,0.06c-0.02.041-.03,0.084-0.05,0.128,0,0.016-.01.031-0.01,0.047a9.135,9.135,0,0,1-1.27,3.019,0.822,0.822,0,0,0-.07.143c0,0.006-.01.011-0.01,0.018a0.978,0.978,0,0,0-.06.337c0,0.007-.01.014-0.01,0.021a0.965,0.965,0,0,0,.07.335,0.021,0.021,0,0,0,.01.021,0.818,0.818,0,0,0,.2.3v0l0.01,0.007v0l1.8,1.771a0.122,0.122,0,0,1,0,.141l-1.8,1.774a0.1,0.1,0,0,1-.14,0l-1.79-1.768s-0.01,0-.01-0.006v0a0.038,0.038,0,0,0-.01,0,0.9,0.9,0,0,0-.31-0.2,0.041,0.041,0,0,0-.02-0.007,0.923,0.923,0,0,0-.33-0.065l-0.03,0a1,1,0,0,0-.34.065,0.035,0.035,0,0,1-.02.01,1.033,1.033,0,0,0-.14.072,9.488,9.488,0,0,1-3.05,1.249,0.22,0.22,0,0,0-.05.017,0.8,0.8,0,0,0-.13.041,0.375,0.375,0,0,0-.07.037,0.475,0.475,0,0,0-.09.053,0.343,0.343,0,0,0-.07.056,0.329,0.329,0,0,0-.07.062,0.308,0.308,0,0,0-.06.067c-0.02.025-.04,0.049-0.06,0.076a0.251,0.251,0,0,0-.04.073c-0.02.03-.03,0.058-0.05,0.088a0.28,0.28,0,0,0-.02.089c-0.01.029-.02,0.057-0.03,0.088a0.436,0.436,0,0,0-.01.114c0,0.023-.01.044-0.01,0.067v2.514a0.1,0.1,0,0,1-.1.1h-2.53a0.106,0.106,0,0,1-.11-0.1v-2.581c-0.01-.038-0.01-0.077-0.02-0.114a0.268,0.268,0,0,0-.02-0.088l-0.03-.089c-0.01-.031-0.03-0.058-0.04-0.088a0.279,0.279,0,0,1-.04-0.073c-0.02-.027-0.04-0.051-0.06-0.076s-0.04-.046-0.06-0.067-0.05-.042-0.07-0.062a0.682,0.682,0,0,1-.07-0.056c-0.03-.02-0.06-0.036-0.09-0.053a0.548,0.548,0,0,1-.07-0.037,1.083,1.083,0,0,0-.13-0.041c-0.02,0-.03-0.013-0.05-0.017a9.4,9.4,0,0,1-3.05-1.249,1.157,1.157,0,0,0-.15-0.074c-0.01,0-.01,0-0.02-0.007a0.935,0.935,0,0,0-.34-0.067h-0.02a0.956,0.956,0,0,0-.34.066c-0.01,0-.01,0-0.02.006a1,1,0,0,0-.31.2v0l-0.01,0v0.007l-1.79,1.769a0.113,0.113,0,0,1-.15,0l-1.79-1.774a0.1,0.1,0,0,1,0-.142l1.79-1.77v0l0.01-.006v-0.006a1,1,0,0,0,.21-0.3v-0.022a0.965,0.965,0,0,0,.07-0.335V981.4a0.8,0.8,0,0,0-.07-0.337c0-.007-0.01-0.012-0.01-0.018a0.789,0.789,0,0,0-.07-0.143,9.34,9.34,0,0,1-1.27-3.019c0-.017-0.01-0.033-0.01-0.05-0.01-.043-0.03-0.085-0.04-0.124s-0.03-.05-0.04-0.074-0.03-.059-0.05-0.087-0.04-.05-0.06-0.074-0.04-.045-0.06-0.065-0.05-.041-0.08-0.061a0.308,0.308,0,0,0-.07-0.054,0.422,0.422,0,0,0-.08-0.046c-0.03-.013-0.05-0.028-0.08-0.039a0.965,0.965,0,0,0-.1-0.032c-0.03-.007-0.05-0.016-0.08-0.021a0.816,0.816,0,0,0-.13-0.013c-0.02,0-.03-0.006-0.05-0.006h-2.55a0.1,0.1,0,0,1-.1-0.1v-2.5h0Zm13.03,8.243a6.992,6.992,0,1,0-7.07-6.992A7.047,7.047,0,0,0,1220,982.773Zm0-12.083a5.092,5.092,0,1,1-5.15,5.091A5.126,5.126,0,0,1,1220,970.69Z" transform="translate(-1192 -961)"/>
</svg>
