<svg xmlns="http://www.w3.org/2000/svg" xmlns:xlink="http://www.w3.org/1999/xlink" preserveAspectRatio="xMidYMid" width="20" height="19" viewBox="0 0 20 19">
  <defs>
    <style>
      .cls-1 {
        fill: url(#linear-gradient-1);
        fill-rule: evenodd;
      }
    </style>

    <linearGradient id="linear-gradient-1" gradientUnits="userSpaceOnUse" x1="20" y1="17.598" x2="0" y2="1.402">
      <stop offset="0" stop-color="#ff2755"/>
      <stop offset="1" stop-color="#ff2d2d"/>
    </linearGradient>
  </defs>
  <path d="M18.571,15.799 L17.143,15.799 L2.856,15.799 L1.428,15.799 C0.570,15.799 -0.001,16.238 -0.001,15.398 C-0.001,14.558 0.570,13.998 1.428,13.998 L2.856,13.998 L2.856,8.397 C2.856,5.037 5.285,2.236 8.571,1.535 L8.571,1.396 C8.571,0.556 9.142,-0.004 9.999,-0.004 C10.857,-0.004 11.428,0.556 11.428,1.396 L11.428,1.535 C14.714,2.236 17.143,5.037 17.143,8.397 L17.143,13.998 L18.571,13.998 C19.428,13.998 20.000,14.558 20.000,15.398 C20.000,16.238 19.428,15.799 18.571,15.799 ZM15.005,7.719 C15.005,5.051 12.836,3.010 9.999,3.010 C7.163,3.010 4.994,5.051 4.994,7.719 L4.994,13.998 L15.005,13.998 L15.005,7.719 ZM10.500,18.999 C9.118,18.999 7.988,18.103 7.988,17.008 L13.011,17.008 C13.011,18.103 11.881,18.999 10.500,18.999 Z" class="cls-1"/>
</svg>
