<svg xmlns="http://www.w3.org/2000/svg" width="23.031" height="24.125" viewBox="0 0 23.031 24.125">
  <defs>
    <style>
      .cls-1 {
        fill: #fff;
        fill-rule: evenodd;
      }
    </style>
  </defs>
  <path id="alarm.svg" class="cls-1" d="M324.484,65a3.264,3.264,0,0,1-3.29-3.217h6.58A3.264,3.264,0,0,1,324.484,65Zm8.226-14.477v6.434h1.645A1.537,1.537,0,0,1,336,58.565h0a1.538,1.538,0,0,1-1.645,1.609H314.613a1.538,1.538,0,0,1-1.645-1.609h0a1.537,1.537,0,0,1,1.645-1.608h1.645V50.522a8.139,8.139,0,0,1,6.581-7.883v-0.16a1.645,1.645,0,0,1,3.29,0v0.16A8.139,8.139,0,0,1,332.71,50.522ZM324.484,45.7a4.8,4.8,0,0,0-4.936,4.826v6.434h9.871V50.522A4.794,4.794,0,0,0,324.484,45.7Z" transform="translate(-312.969 -40.875)"/>
</svg>
