<svg id="amama-apps.svg" xmlns="http://www.w3.org/2000/svg" xmlns:xlink="http://www.w3.org/1999/xlink" width="99" height="99" viewBox="0 0 99 99">
  <defs>
    <style>
      .cls-1 {
        fill: url(#linear-gradient);
        filter: url(#filter);
      }

      .cls-2 {
        fill: #fff;
        fill-rule: evenodd;
        filter: url(#filter-2);
      }
    </style>
    <linearGradient id="linear-gradient" x1="13.306" x2="78.694" y2="90" gradientUnits="userSpaceOnUse">
      <stop offset="0" stop-color="#61ffa7"/>
      <stop offset="1" stop-color="#00b8c8"/>
    </linearGradient>
    <filter id="filter" x="0" y="0" width="99" height="99" filterUnits="userSpaceOnUse">
      <feOffset result="offset" dx="2.723" dy="4.193" in="SourceAlpha"/>
      <feGaussianBlur result="blur" stdDeviation="2.236"/>
      <feFlood result="flood" flood-opacity="0.12"/>
      <feComposite result="composite" operator="in" in2="blur"/>
      <feBlend result="blend" in="SourceGraphic"/>
    </filter>
    <filter id="filter-2" x="1198" y="1951.91" width="63" height="48.09" filterUnits="userSpaceOnUse">
      <feOffset result="offset" dx="2.179" dy="3.355" in="SourceAlpha"/>
      <feGaussianBlur result="blur" stdDeviation="2"/>
      <feFlood result="flood" flood-opacity="0.12"/>
      <feComposite result="composite" operator="in" in2="blur"/>
      <feBlend result="blend" in="SourceGraphic"/>
    </filter>
  </defs>
  <circle id="Ellipse_679_copy_3" data-name="Ellipse 679 copy 3" class="cls-1" cx="46" cy="45" r="45"/>
  <path class="cls-2" d="M1200.86,1990.96h52.19v-1.86h-20.98a2.325,2.325,0,0,1-1.85.93h-7.46a2.325,2.325,0,0,1-1.85-.93h-20.05v1.86Zm48.46-34.4a0.928,0.928,0,0,0-.93-0.93h-42.87a0.928,0.928,0,0,0-.93.93v27.89a0.935,0.935,0,0,0,.93.93h42.87a0.935,0.935,0,0,0,.93-0.93v-27.89Zm-48.85,30.68h0.39v-31.61a3.734,3.734,0,0,1,3.73-3.72h44.73a3.734,3.734,0,0,1,3.73,3.72v31.61h0.39a1.472,1.472,0,0,1,1.47,1.47v2.64a1.472,1.472,0,0,1-1.47,1.47h-52.97a1.472,1.472,0,0,1-1.47-1.47v-2.64a1.472,1.472,0,0,1,1.47-1.47h0Zm12.71-16.15,3.73,4.64a0.919,0.919,0,0,0,.73.35,0.909,0.909,0,0,0,.58-0.2,0.926,0.926,0,0,0,.14-1.31l-3.26-4.06,3.26-4.08a0.914,0.914,0,0,0-.14-1.3,0.934,0.934,0,0,0-1.31.14l-3.73,4.66a0.932,0.932,0,0,0,0,1.16h0Zm8.18,4.99h1.87a0.93,0.93,0,1,0,0-1.86h-1.87a0.93,0.93,0,1,0,0,1.86h0Zm5.59,0h1.87a0.93,0.93,0,1,0,0-1.86h-1.87a0.93,0.93,0,1,0,0,1.86h0Zm4.66-4.65a0.935,0.935,0,0,0,1.87,0v-5.58a0.935,0.935,0,0,0-1.87,0v5.58Zm0.94,4.65a0.93,0.93,0,1,0-.94-0.93,0.928,0.928,0,0,0,.94.93h0Zm3.14-.2a0.909,0.909,0,0,0,.58.2,0.919,0.919,0,0,0,.73-0.35l3.73-4.64a0.932,0.932,0,0,0,0-1.16l-3.73-4.66a0.934,0.934,0,0,0-1.31-.14,0.924,0.924,0,0,0-.15,1.3l3.27,4.08-3.26,4.06a0.926,0.926,0,0,0,.14,1.31h0Zm11.76,7.64h-41v-26.03h41v26.03Z" transform="translate(-1181 -1926)"/>
</svg>
