<svg xmlns="http://www.w3.org/2000/svg" width="78.97" height="79.062" viewBox="0 0 78.97 79.062">
  <metadata><?xpacket begin="﻿" id="W5M0MpCehiHzreSzNTczkc9d"?>
<x:xmpmeta xmlns:x="adobe:ns:meta/" x:xmptk="Adobe XMP Core 5.6-c138 79.159824, 2016/09/14-01:09:01        ">
   <rdf:RDF xmlns:rdf="http://www.w3.org/1999/02/22-rdf-syntax-ns#">
      <rdf:Description rdf:about=""/>
   </rdf:RDF>
</x:xmpmeta>
                                                                                                    
                                                                                                    
                                                                                                    
                                                                                                    
                                                                                                    
                                                                                                    
                                                                                                    
                                                                                                    
                                                                                                    
                                                                                                    
                                                                                                    
                                                                                                    
                                                                                                    
                                                                                                    
                                                                                                    
                                                                                                    
                                                                                                    
                                                                                                    
                                                                                                    
                                                                                                    
                           
<?xpacket end="w"?></metadata>
<defs>
    <style>
      .cls-1 {
        fill: #fff;
        fill-rule: evenodd;
      }
    </style>
  </defs>
  <path class="cls-1" d="M1139.24,950.363a1.65,1.65,0,0,0-2.33,0l-20.93,20.96a1.651,1.651,0,0,0,0,2.328,1.677,1.677,0,0,0,1.17.481,1.636,1.636,0,0,0,1.16-.481l20.93-20.959A1.653,1.653,0,0,0,1139.24,950.363Zm2.32,4.657-20.93,20.96a1.651,1.651,0,0,0,0,2.328,1.677,1.677,0,0,0,1.17.481,1.636,1.636,0,0,0,1.16-.481l20.93-20.959A1.647,1.647,0,0,0,1141.56,955.02Zm-1.33,10.648-14.95,14.968a1.653,1.653,0,0,0,0,2.329,1.681,1.681,0,0,0,1.17.481,1.624,1.624,0,0,0,1.16-.481L1142.56,968A1.647,1.647,0,0,0,1140.23,965.668Zm-30.74,18.861h1.64a1.647,1.647,0,1,0,0-3.293h-1.64A1.647,1.647,0,1,0,1109.49,984.529Zm0,6.587h4.7a1.647,1.647,0,0,0,0-3.293h-4.7A1.647,1.647,0,1,0,1109.49,991.116Zm59.19-26.347h-4.93a1.647,1.647,0,0,0,0,3.293h3.29v0.274a4.945,4.945,0,0,0,0,9.32v0.563a4.945,4.945,0,0,0,0,9.32V988.1a4.945,4.945,0,0,0,0,9.32v0.28h-64.13a1.641,1.641,0,0,1-1.64-1.647V969.709a1.641,1.641,0,0,1,1.64-1.647,1.647,1.647,0,1,0,0-3.293,4.94,4.94,0,0,0-4.93,4.94v26.347a4.943,4.943,0,0,0,4.93,4.944h65.77a1.652,1.652,0,0,0,1.65-1.65v-3.294a1.649,1.649,0,0,0-1.65-1.646,1.647,1.647,0,0,1,0-3.294,1.65,1.65,0,0,0,1.65-1.647v-3.293a1.65,1.65,0,0,0-1.65-1.647,1.647,1.647,0,0,1,0-3.293,1.65,1.65,0,0,0,1.65-1.647V976.3a1.65,1.65,0,0,0-1.65-1.647,1.647,1.647,0,0,1,0-3.293,1.65,1.65,0,0,0,1.65-1.647v-3.294A1.649,1.649,0,0,0,1168.68,964.769Zm7.77-19.056-2.32-2.328a1.7,1.7,0,0,0-2.33,0,1.675,1.675,0,0,1-2.32,0,1.648,1.648,0,0,1-.48-1.166,1.589,1.589,0,0,1,.48-1.163,1.656,1.656,0,0,0,0-2.332l-2.33-2.331a1.651,1.651,0,0,0-2.33,0,1.67,1.67,0,0,1-2.32,0,1.653,1.653,0,0,1,0-2.329,1.69,1.69,0,0,0,.48-1.166,1.643,1.643,0,0,0-.48-1.166l-2.33-2.328a1.667,1.667,0,0,0-1.17-.481,1.644,1.644,0,0,0-1.16.481,1.674,1.674,0,0,1-2.32,0,1.648,1.648,0,0,1-.48-1.166,1.587,1.587,0,0,1,.48-1.162,1.656,1.656,0,0,0,0-2.332l-2.33-2.329a1.643,1.643,0,0,0-2.32,0L1106,967.18a4.959,4.959,0,0,0,0,6.988l18.77,18.8a4.9,4.9,0,0,0,3.49,1.446,4.993,4.993,0,0,0,3.5-1.44l44.69-44.929A1.633,1.633,0,0,0,1176.45,945.713Zm-47.03,44.922a1.69,1.69,0,0,1-2.33,0l-18.77-18.795a1.648,1.648,0,0,1-.48-1.166,1.631,1.631,0,0,1,.48-1.163l43.71-43.6,0.19,0.2a4.838,4.838,0,0,0-.48,2.131,4.911,4.911,0,0,0,1.44,3.494,5.04,5.04,0,0,0,5.62.965l0.4,0.4a4.843,4.843,0,0,0-.48,2.13,4.914,4.914,0,0,0,1.44,3.5,5.041,5.041,0,0,0,5.62.965l0.39,0.4a4.98,4.98,0,0,0-.48,2.131,4.921,4.921,0,0,0,1.45,3.494,5.037,5.037,0,0,0,5.61.965l0.21,0.2Z" transform="translate(-1097.97 -921.938)"/>
</svg>
