<svg xmlns="http://www.w3.org/2000/svg" width="80" height="94" viewBox="0 0 80 94">
  <defs>
    <style>
      .cls-1 {
        fill: #d6d6d6;
        fill-rule: evenodd;
        opacity: 0.25;
      }
    </style>
  </defs>
  <path id="empoyee-guid-bg.svg" class="cls-1" d="M556.06,1957.01a10.91,10.91,0,0,1,10.951,10.91v72.16a10.91,10.91,0,0,1-10.951,10.91H497.937a10.91,10.91,0,0,1-10.951-10.91v-72.16a10.91,10.91,0,0,1,10.951-10.91H556.06Zm-10.108,5.04H497.937a5.847,5.847,0,0,0-5.9,5.87v72.16a5.847,5.847,0,0,0,5.9,5.87h48.015v-83.9Zm-26.114,12.58a10.91,10.91,0,1,1-10.95,10.91A10.91,10.91,0,0,1,519.838,1974.63Zm0,5.04a5.87,5.87,0,1,0,5.9,5.87A5.847,5.847,0,0,0,519.838,1979.67Zm8.424,24.33a2.515,2.515,0,1,1,0,5.03H511.415a2.515,2.515,0,1,1,0-5.03h16.847Zm0,8.39a2.515,2.515,0,1,1,0,5.03H511.415a2.515,2.515,0,1,1,0-5.03h16.847Z" transform="translate(-487 -1957)"/>
</svg>
