<svg xmlns="http://www.w3.org/2000/svg" xmlns:xlink="http://www.w3.org/1999/xlink" preserveAspectRatio="xMidYMid" width="21.69" height="18.531" viewBox="0 0 21.69 18.531">
  <defs>
    <style>
      .cls-1 {
        fill: url(#linear-gradient-1);
        fill-rule: evenodd;
      }
    </style>

    <linearGradient id="linear-gradient-1" gradientUnits="userSpaceOnUse" x1="21.69" y1="18.048" x2="0" y2="0.484">
      <stop offset="0" stop-color="#3eee5f"/>
      <stop offset="1" stop-color="#00bb54"/>
    </linearGradient>
  </defs>
  <path d="M1.622,-0.014 C0.733,-0.014 -0.000,0.698 -0.000,1.563 L-0.000,16.955 C-0.000,17.820 0.733,18.531 1.622,18.531 L20.078,18.531 C20.967,18.531 21.700,17.820 21.700,16.955 L21.700,1.563 C21.700,0.698 20.967,-0.014 20.078,-0.014 L1.622,-0.014 ZM1.622,1.018 L20.078,1.018 C20.398,1.018 20.640,1.251 20.640,1.563 L20.640,16.955 C20.640,17.267 20.398,17.500 20.078,17.500 L1.622,17.500 C1.302,17.500 1.059,17.267 1.059,16.955 L1.059,1.563 C1.059,1.251 1.302,1.018 1.622,1.018 ZM11.635,3.076 C11.343,3.076 11.106,3.307 11.106,3.591 L11.106,6.682 C11.106,6.967 11.343,7.198 11.635,7.198 L17.992,7.198 C18.284,7.198 18.522,6.967 18.522,6.682 L18.522,3.591 C18.522,3.307 18.284,3.076 17.992,3.076 L11.635,3.076 ZM3.178,4.107 L3.178,5.137 L8.987,5.137 L8.987,4.107 L3.178,4.107 ZM12.165,4.107 L17.462,4.107 L17.462,6.167 L12.165,6.167 L12.165,4.107 ZM11.635,8.228 C11.343,8.228 11.106,8.458 11.106,8.743 L11.106,11.834 C11.106,12.118 11.343,12.349 11.635,12.349 L17.992,12.349 C18.284,12.349 18.522,12.118 18.522,11.834 L18.522,8.743 C18.522,8.458 18.284,8.228 17.992,8.228 L11.635,8.228 ZM3.178,9.258 L3.178,10.288 L8.987,10.288 L8.987,9.258 L3.178,9.258 ZM12.165,9.258 L17.462,9.258 L17.462,11.319 L12.165,11.319 L12.165,9.258 ZM3.178,14.410 L3.178,15.440 L18.414,15.440 L18.414,14.410 L3.178,14.410 Z" class="cls-1"/>
</svg>
