<svg xmlns="http://www.w3.org/2000/svg" xmlns:xlink="http://www.w3.org/1999/xlink" preserveAspectRatio="xMidYMid" width="36" height="26" viewBox="0 0 36 26">
  <defs>
    <style>
      .cls-1 {
        fill: #fff;
        fill-rule: evenodd;
      }
    </style>
  </defs>
  <path d="M35.176,25.172 C34.645,25.705 33.939,26.000 33.187,26.000 L2.812,26.000 C2.062,26.000 1.355,25.705 0.824,25.172 C0.292,24.638 -0.000,23.928 -0.000,23.174 L-0.000,1.130 L3.375,1.130 L3.375,2.261 L1.125,2.261 L1.125,23.174 C1.125,23.627 1.300,24.052 1.619,24.373 C2.257,25.013 3.368,25.013 4.006,24.373 C4.324,24.052 4.500,23.627 4.500,23.174 L4.500,-0.000 L14.250,-0.000 L18.750,3.391 L36.000,3.391 L36.000,23.174 C36.000,23.928 35.707,24.638 35.176,25.172 ZM34.875,4.522 L18.375,4.522 L13.875,1.130 L5.625,1.130 L5.625,23.174 C5.625,23.348 5.606,23.517 5.574,23.685 C5.565,23.739 5.548,23.791 5.535,23.844 C5.509,23.957 5.476,24.067 5.436,24.175 C5.414,24.234 5.389,24.290 5.363,24.347 C5.317,24.447 5.265,24.544 5.208,24.640 C5.176,24.691 5.146,24.743 5.110,24.794 C5.093,24.818 5.080,24.845 5.062,24.869 L33.187,24.869 C33.639,24.869 34.062,24.693 34.380,24.373 C34.699,24.053 34.875,23.627 34.875,23.174 L34.875,4.522 ZM25.130,17.505 L26.129,19.178 L24.712,20.602 L23.047,19.598 C22.629,19.840 22.186,20.026 21.723,20.152 L21.252,22.043 L19.248,22.043 L18.777,20.153 C18.314,20.027 17.871,19.841 17.453,19.599 L15.788,20.603 L14.371,19.179 L15.370,17.506 C15.130,17.086 14.946,16.641 14.820,16.175 L12.937,15.702 L12.937,13.689 L14.820,13.216 C14.945,12.751 15.129,12.305 15.370,11.885 L14.371,10.212 L15.788,8.788 L17.453,9.792 C17.870,9.550 18.314,9.366 18.777,9.239 L19.248,7.348 L21.252,7.348 L21.721,9.239 C22.184,9.366 22.628,9.550 23.046,9.792 L24.711,8.788 L26.127,10.212 L25.129,11.885 C25.370,12.305 25.554,12.750 25.680,13.216 L27.562,13.689 L27.562,15.702 L25.680,16.174 C25.555,16.639 25.371,17.084 25.130,17.505 ZM26.437,14.572 L24.731,14.142 L24.661,13.793 C24.546,13.224 24.325,12.688 24.003,12.202 L23.806,11.904 L24.712,10.387 L24.537,10.212 L23.028,11.122 L22.732,10.925 C22.246,10.602 21.713,10.379 21.148,10.264 L20.800,10.194 L20.373,8.478 L20.127,8.478 L19.700,10.194 L19.352,10.264 C18.786,10.380 18.253,10.602 17.768,10.925 L17.472,11.122 L15.962,10.212 L15.788,10.387 L16.694,11.904 L16.498,12.202 C16.176,12.690 15.954,13.225 15.840,13.793 L15.770,14.143 L14.062,14.572 L14.062,14.819 L15.770,15.247 L15.840,15.597 C15.955,16.166 16.176,16.701 16.498,17.188 L16.694,17.486 L15.788,19.003 L15.963,19.179 L17.473,18.268 L17.769,18.466 C18.253,18.789 18.786,19.012 19.353,19.127 L19.701,19.198 L20.127,20.913 L20.374,20.913 L20.801,19.199 L21.148,19.128 C21.712,19.013 22.246,18.791 22.731,18.467 L23.027,18.269 L24.537,19.180 L24.712,19.004 L23.806,17.487 L24.002,17.190 C24.324,16.702 24.545,16.166 24.659,15.598 L24.729,15.248 L26.437,14.819 L26.437,14.572 ZM20.250,18.087 C18.389,18.087 16.875,16.566 16.875,14.696 C16.875,12.825 18.389,11.304 20.250,11.304 C22.111,11.304 23.625,12.825 23.625,14.696 C23.625,16.566 22.111,18.087 20.250,18.087 ZM20.250,12.435 C19.009,12.435 18.000,13.449 18.000,14.696 C18.000,15.942 19.009,16.956 20.250,16.956 C21.491,16.956 22.500,15.942 22.500,14.696 C22.500,13.449 21.491,12.435 20.250,12.435 ZM19.687,14.130 L20.812,14.130 L20.812,15.261 L19.687,15.261 L19.687,14.130 ZM6.750,3.391 L13.500,3.391 L13.500,4.522 L6.750,4.522 L6.750,3.391 ZM10.125,6.783 L6.750,6.783 L6.750,5.652 L10.125,5.652 L10.125,6.783 ZM19.125,1.130 L36.000,1.130 L36.000,2.261 L19.125,2.261 L19.125,1.130 Z" class="cls-1"/>
</svg>
