<svg xmlns="http://www.w3.org/2000/svg" width="40" height="27" viewBox="0 0 40 27">
  <defs>
    <style>
      .cls-1 {
        fill: #a5a5a5;
        fill-rule: evenodd;
      }
    </style>
  </defs>
  <path id="services.svg" class="cls-1" d="M1246.83,305H1236v24.065a1.715,1.715,0,0,1-.55,1.245,2.009,2.009,0,0,1-2.65,0,1.677,1.677,0,0,1-.55-1.245V307.348h2.5v-1.174H1231v22.891a2.8,2.8,0,0,0,.92,2.075,3.2,3.2,0,0,0,2.2.86h33.75a3.2,3.2,0,0,0,2.21-.86,2.833,2.833,0,0,0,.92-2.075V308.522h-19.17Zm22.92,24.065a1.713,1.713,0,0,1-.55,1.245,1.91,1.91,0,0,1-1.33.516h-31.25c0.02-.025.04-0.053,0.06-0.079,0.04-.052.07-0.107,0.11-0.16a3.471,3.471,0,0,0,.17-0.3,1.279,1.279,0,0,0,.08-0.178c0.04-.112.08-0.227,0.11-0.344,0.01-.055.03-0.109,0.04-0.165a2.356,2.356,0,0,0,.06-0.531V306.174h9.17l5,3.522h18.33v19.369Zm-17.5-22.891H1271v1.174h-18.75v-1.174Zm-13.75,2.348h7.5V309.7h-7.5v-1.174Zm0,2.347h3.75v1.174h-3.75v-1.174Zm10.04,3.257-1.57,1.479,1.11,1.737a5.564,5.564,0,0,0-.61,1.383l-2.1.49v2.091l2.1,0.492a5.542,5.542,0,0,0,.61,1.382l-1.11,1.737,1.57,1.478,1.85-1.042a6.6,6.6,0,0,0,1.47.575l0.53,1.963h2.22l0.53-1.964a6.6,6.6,0,0,0,1.47-.575l1.85,1.042,1.57-1.478-1.11-1.738a5.558,5.558,0,0,0,.61-1.382l2.09-.49v-2.091l-2.09-.491a5.542,5.542,0,0,0-.61-1.382l1.11-1.738-1.57-1.478-1.85,1.043a6.488,6.488,0,0,0-1.48-.574l-0.52-1.965h-2.22l-0.53,1.965a6.6,6.6,0,0,0-1.47.574Zm2.2,2.219a5.128,5.128,0,0,1,1.76-.686l0.39-.073,0.47-1.782h0.28l0.47,1.782,0.39,0.073a5.108,5.108,0,0,1,1.76.686l0.33,0.2,1.67-.946,0.2,0.182-1.01,1.576,0.22,0.309a4.489,4.489,0,0,1,.73,1.652l0.08,0.363,1.89,0.446v0.257l-1.89.445-0.08.364a4.515,4.515,0,0,1-.73,1.653l-0.22.309,1.01,1.575-0.2.183-1.67-.946-0.33.206a5.208,5.208,0,0,1-1.76.686l-0.39.074-0.47,1.779h-0.28l-0.47-1.781-0.39-.074a5.108,5.108,0,0,1-1.76-.686l-0.33-.2-1.67.945-0.2-.182,1.01-1.576-0.22-.309a4.5,4.5,0,0,1-.73-1.652l-0.08-.363-1.9-.445v-0.257l1.9-.445,0.08-.363a4.508,4.508,0,0,1,.73-1.653l0.22-.309-1.01-1.576,0.2-.182,1.67,0.946Zm2.76,7.437a3.528,3.528,0,1,0-3.75-3.521A3.643,3.643,0,0,0,1253.5,323.782Zm0-5.869a2.353,2.353,0,1,1-2.5,2.348A2.429,2.429,0,0,1,1253.5,317.913Zm-0.63,1.761h1.25v1.174h-1.25v-1.174Z" transform="translate(-1231 -305)"/>
</svg>
