<svg xmlns="http://www.w3.org/2000/svg" xmlns:xlink="http://www.w3.org/1999/xlink" preserveAspectRatio="xMidYMid" width="28" height="18.531" viewBox="0 0 28 18.531">
  <defs>
    <style>
      .cls-1 {
        fill: url(#linear-gradient-1);
        fill-rule: evenodd;
      }
    </style>

    <linearGradient id="linear-gradient-1" gradientUnits="userSpaceOnUse" x1="2.558" x2="25.442" y2="18.532">
      <stop offset="0" stop-color="#ff9a40"/>
      <stop offset="1" stop-color="#ee6234"/>
    </linearGradient>
  </defs>
  <path d="M27.359,17.955 C26.946,18.335 26.397,18.545 25.812,18.545 L2.187,18.545 C1.603,18.545 1.054,18.335 0.641,17.955 C0.227,17.574 -0.000,17.068 -0.000,16.530 L-0.000,0.806 L2.625,0.806 L2.625,1.612 L0.875,1.612 L0.875,16.530 C0.875,16.852 1.011,17.156 1.260,17.384 C1.755,17.841 2.619,17.841 3.115,17.384 C3.363,17.156 3.500,16.852 3.500,16.530 L3.500,-0.000 L11.083,-0.000 L14.583,2.419 L28.000,2.419 L28.000,16.530 C28.000,17.068 27.772,17.574 27.359,17.955 ZM27.125,3.225 L14.292,3.225 L10.792,0.806 L4.375,0.806 L4.375,16.530 C4.375,16.654 4.360,16.775 4.336,16.894 C4.328,16.933 4.315,16.969 4.305,17.008 C4.284,17.088 4.259,17.167 4.228,17.244 C4.211,17.285 4.191,17.325 4.171,17.366 C4.136,17.438 4.095,17.507 4.050,17.575 C4.026,17.612 4.002,17.649 3.975,17.685 C3.961,17.702 3.951,17.722 3.937,17.739 L25.812,17.739 C26.163,17.739 26.493,17.613 26.740,17.384 C26.988,17.157 27.125,16.852 27.125,16.530 L27.125,3.225 ZM19.546,12.486 L20.322,13.680 L19.221,14.695 L17.926,13.979 C17.601,14.152 17.256,14.284 16.896,14.374 L16.529,15.723 L14.971,15.723 L14.605,14.375 C14.244,14.285 13.899,14.152 13.574,13.980 L12.279,14.696 L11.178,13.680 L11.955,12.487 C11.767,12.187 11.624,11.870 11.527,11.538 L10.062,11.200 L10.062,9.764 L11.526,9.427 C11.624,9.095 11.767,8.777 11.954,8.478 L11.177,7.284 L12.279,6.269 L13.574,6.985 C13.899,6.812 14.244,6.680 14.605,6.590 L14.970,5.241 L16.529,5.241 L16.894,6.590 C17.255,6.680 17.599,6.812 17.925,6.985 L19.220,6.269 L20.321,7.284 L19.545,8.477 C19.732,8.777 19.875,9.094 19.973,9.427 L21.437,9.764 L21.437,11.200 L19.973,11.536 C19.876,11.868 19.733,12.186 19.546,12.486 ZM20.562,10.394 L19.235,10.087 L19.180,9.838 C19.092,9.433 18.919,9.050 18.669,8.703 L18.516,8.491 L19.221,7.409 L19.085,7.284 L17.910,7.933 L17.680,7.793 C17.302,7.562 16.888,7.403 16.449,7.321 L16.178,7.271 L15.846,6.047 L15.654,6.047 L15.322,7.271 L15.051,7.321 C14.611,7.404 14.197,7.562 13.820,7.793 L13.590,7.933 L12.415,7.284 L12.279,7.409 L12.984,8.491 L12.831,8.703 C12.581,9.051 12.409,9.433 12.320,9.839 L12.265,10.088 L10.937,10.394 L10.937,10.570 L12.265,10.876 L12.320,11.125 C12.409,11.531 12.581,11.912 12.831,12.260 L12.985,12.472 L12.280,13.555 L12.415,13.680 L13.590,13.031 L13.820,13.171 C14.197,13.402 14.611,13.561 15.052,13.643 L15.323,13.694 L15.655,14.917 L15.846,14.917 L16.178,13.694 L16.449,13.644 C16.887,13.562 17.302,13.403 17.680,13.172 L17.910,13.031 L19.084,13.681 L19.220,13.555 L18.516,12.473 L18.668,12.261 C18.918,11.913 19.091,11.531 19.179,11.126 L19.234,10.876 L20.562,10.570 L20.562,10.394 ZM15.750,12.901 C14.302,12.901 13.125,11.816 13.125,10.482 C13.125,9.148 14.302,8.063 15.750,8.063 C17.198,8.063 18.375,9.148 18.375,10.482 C18.375,11.816 17.198,12.901 15.750,12.901 ZM15.750,8.869 C14.785,8.869 14.000,9.593 14.000,10.482 C14.000,11.372 14.785,12.095 15.750,12.095 C16.715,12.095 17.500,11.372 17.500,10.482 C17.500,9.593 16.715,8.869 15.750,8.869 ZM15.312,10.079 L16.187,10.079 L16.187,10.885 L15.312,10.885 L15.312,10.079 ZM5.250,2.419 L10.500,2.419 L10.500,3.225 L5.250,3.225 L5.250,2.419 ZM7.875,4.838 L5.250,4.838 L5.250,4.031 L7.875,4.031 L7.875,4.838 ZM14.875,0.806 L28.000,0.806 L28.000,1.612 L14.875,1.612 L14.875,0.806 Z" class="cls-1"/>
</svg>
