<svg xmlns="http://www.w3.org/2000/svg" width="34" height="25" viewBox="0 0 34 25">
  <defs>
    <style>
      .cls-1 {
        fill: #fff;
        fill-rule: evenodd;
      }
    </style>
  </defs>
  <path id="support-fixed.svg" class="cls-1" d="M30.457,147.573H28.191a1.773,1.773,0,1,1-1.593-2.555,1.825,1.825,0,0,1,1.522.863h2.69a6.37,6.37,0,0,1,3.965-4.139,10.1,10.1,0,1,0-3.894,8.422,6.4,6.4,0,0,1-.46-2.34A0.706,0.706,0,0,0,30.457,147.573Zm-5.771-17.312a11.873,11.873,0,0,1,11.612,9.79,3.5,3.5,0,0,0-.991,1.476,6.479,6.479,0,0,1,1.487-.18,6.19,6.19,0,0,1,4.638,2.087V142.5a3.145,3.145,0,0,0-2.974-3.167,13.99,13.99,0,0,0-27.472,0A3.121,3.121,0,0,0,8.012,142.5v2.015a3.151,3.151,0,1,0,6.3,0V142.5a3.266,3.266,0,0,0-1.133-2.447A11.733,11.733,0,0,1,24.686,130.261Zm12.072,12.093A5.327,5.327,0,1,0,42,147.681,5.272,5.272,0,0,0,36.758,142.354Zm-0.727,4.615h1.688v4.281H36.031v-4.281Zm0.844-2.594a0.876,0.876,0,1,1-.844.875A0.86,0.86,0,0,1,36.875,144.375Z" transform="translate(-8 -128)"/>
</svg>
