<svg xmlns="http://www.w3.org/2000/svg" xmlns:xlink="http://www.w3.org/1999/xlink" preserveAspectRatio="xMidYMid" width="29" height="25" viewBox="0 0 29 25">
  <defs>
    <style>
      .cls-1 {
        fill: #fff;
        fill-rule: evenodd;
      }
    </style>
  </defs>
  <path d="M-0.000,25.000 L-0.000,2.314 L6.920,2.314 L6.920,-0.002 L8.898,-0.002 L8.898,2.314 L20.102,2.314 L20.102,-0.002 L22.080,-0.002 L22.080,2.314 L29.000,2.314 L29.000,25.000 L-0.000,25.000 ZM27.023,4.231 L22.080,4.231 L22.080,5.829 L20.102,5.829 L20.102,4.231 L8.898,4.231 L8.898,5.829 L6.920,5.829 L6.920,4.231 L1.977,4.231 L1.977,23.083 L27.023,23.083 L27.023,4.231 ZM12.661,15.951 L19.931,8.906 L21.328,10.261 L12.661,18.664 L7.672,13.826 L9.069,12.472 L12.661,15.951 Z" class="cls-1"/>
</svg>
