<svg xmlns="http://www.w3.org/2000/svg" width="58" height="84" viewBox="0 0 58 84">
  <metadata><?xpacket begin="﻿" id="W5M0MpCehiHzreSzNTczkc9d"?>
<x:xmpmeta xmlns:x="adobe:ns:meta/" x:xmptk="Adobe XMP Core 5.6-c138 79.159824, 2016/09/14-01:09:01        ">
   <rdf:RDF xmlns:rdf="http://www.w3.org/1999/02/22-rdf-syntax-ns#">
      <rdf:Description rdf:about=""/>
   </rdf:RDF>
</x:xmpmeta>
                                                                                                    
                                                                                                    
                                                                                                    
                                                                                                    
                                                                                                    
                                                                                                    
                                                                                                    
                                                                                                    
                                                                                                    
                                                                                                    
                                                                                                    
                                                                                                    
                                                                                                    
                                                                                                    
                                                                                                    
                                                                                                    
                                                                                                    
                                                                                                    
                                                                                                    
                                                                                                    
                           
<?xpacket end="w"?></metadata>
<defs>
    <style>
      .cls-1 {
        fill: #fff;
        fill-rule: evenodd;
      }
    </style>
  </defs>
  <path class="cls-1" d="M1165.96,364.144a1,1,0,1,0,0-2h-2.81v-9.411a6.461,6.461,0,0,0-6.43-6.407h-6.13V332.708a5.72,5.72,0,0,0-5.73-5.707h-10.55a5.714,5.714,0,0,0-5.73,5.707v13.616h-8.14a6.47,6.47,0,0,0-6.44,6.407v17.621h-1.2a3.811,3.811,0,0,0-3.82,3.8v8.21a3.811,3.811,0,0,0,3.82,3.8h1.2v18.421a6.471,6.471,0,0,0,6.44,6.408h36.28a6.462,6.462,0,0,0,6.43-6.408V393.979h2.81a1,1,0,1,0,0-2h-2.81V364.144h2.81Zm-52.06,20.024h-1.2a1.8,1.8,0,0,1-1.81-1.8v-8.21a1.8,1.8,0,0,1,1.81-1.8h1.2v11.814ZM1120.44,409h0a4.477,4.477,0,0,1-4.53-4.406v-51.86a4.454,4.454,0,0,1,4.43-4.4h0.1V409Zm4.32,0h-2.31V348.326h2.31V409Zm5.83-76.289a3.7,3.7,0,0,1,3.72-3.7h10.45a3.7,3.7,0,0,1,3.72,3.7v13.616h-1.11v-1.5a3.811,3.811,0,0,0-3.82-3.8h-8.24a3.811,3.811,0,0,0-3.82,3.8v1.5h-1.1V332.708h0.2Zm3.01,13.315v-1.2a1.8,1.8,0,0,1,1.81-1.8h8.24a1.8,1.8,0,0,1,1.81,1.8v1.2H1133.6Zm1.31,9.211a2.558,2.558,0,0,1,3.32,1.3l2.81,6.508-4.62,2-2.82-6.507a2.122,2.122,0,0,1,0-1.9A2.051,2.051,0,0,1,1134.91,355.234ZM1149.78,409h-23.01V348.326h5.53l1,5.406a4.391,4.391,0,0,0-1.61,5.507l3.22,7.408a1.207,1.207,0,0,0,.5.5,2.269,2.269,0,0,0,.4.1,0.6,0.6,0,0,0,.4-0.1l6.44-2.8a1,1,0,0,0,.5-1.3l-3.22-7.409a4.6,4.6,0,0,0-4.72-2.7l-0.9-4.6h15.47V409Zm4.32,0h-2.31V348.326h2.31V409Zm6.94-4.406a4.453,4.453,0,0,1-4.42,4.406h-0.51V348.326h0.51a4.452,4.452,0,0,1,4.42,4.4v51.86Z" transform="translate(-1108.97 -327)"/>
</svg>
